<svg width="90" height="91" viewBox="0 0 90 91" fill="none" xmlns="http://www.w3.org/2000/svg">
<rect x="0.5" y="0.880127" width="89" height="89" rx="44.5" fill="#070D1B"/>
<rect x="0.5" y="0.880127" width="89" height="89" rx="44.5" stroke="#3F4551"/>
<path d="M23.875 69.7551H66.125C66.9867 69.7542 67.8127 69.4114 68.422 68.8022C69.0313 68.1929 69.374 67.3668 69.375 66.5051V24.2551C69.374 23.3935 69.0313 22.5674 68.422 21.9581C67.8127 21.3488 66.9867 21.0061 66.125 21.0051H23.875C23.0133 21.0061 22.1873 21.3488 21.578 21.9581C20.9687 22.5674 20.626 23.3935 20.625 24.2551V66.5051C20.626 67.3668 20.9687 68.1929 21.578 68.8022C22.1873 69.4114 23.0133 69.7542 23.875 69.7551ZM22.25 66.5051H25.5V68.1301H23.875C23.4442 68.1296 23.0311 67.9583 22.7265 67.6536C22.4219 67.349 22.2505 66.936 22.25 66.5051ZM35.25 61.6301H27.125V60.0051H35.25V61.6301ZM35.25 63.2551V64.8801H27.125V63.2551H35.25ZM35.25 66.5051V68.1301H27.125V66.5051H35.25ZM35.25 58.3801H27.125V56.7551H35.25V58.3801ZM32 55.1301H22.25V37.2551H32V55.1301ZM25.5 56.7551V58.3801H22.25V56.7551H25.5ZM25.5 60.0051V61.6301H22.25V60.0051H25.5ZM25.5 63.2551V64.8801H22.25V63.2551H25.5ZM66.125 68.1301H36.875V56.7551H67.75V66.5051C67.7495 66.936 67.5781 67.349 67.2735 67.6536C66.9689 67.9583 66.5558 68.1296 66.125 68.1301ZM67.75 24.2551V55.1301H33.625V22.6301H66.125C66.5558 22.6306 66.9689 22.802 67.2735 23.1066C67.5781 23.4113 67.7495 23.8243 67.75 24.2551ZM23.875 22.6301H32V35.6301H22.25V24.2551C22.2505 23.8243 22.4219 23.4113 22.7265 23.1066C23.0311 22.802 23.4442 22.6306 23.875 22.6301Z" fill="#3F4551"/>
<path d="M40.125 58.3801H50.6875V60.0051H40.125V58.3801Z" fill="#3F4551"/>
<path d="M48.25 61.6301H62.875V63.2551H48.25V61.6301Z" fill="#3F4551"/>
<path d="M44.1875 64.8801H49.0625V66.5051H44.1875V64.8801Z" fill="#3F4551"/>
<path d="M51.5 64.8801H53.9375V66.5051H51.5V64.8801Z" fill="#3F4551"/>
<path d="M57.1875 58.3801H62.875V60.0051H57.1875V58.3801Z" fill="#3F4551"/>
<path d="M24.6875 25.8801C25.1362 25.8801 25.5 25.5164 25.5 25.0676C25.5 24.6189 25.1362 24.2551 24.6875 24.2551C24.2388 24.2551 23.875 24.6189 23.875 25.0676C23.875 25.5164 24.2388 25.8801 24.6875 25.8801Z" fill="#3F4551"/>
<path d="M27.125 25.8801C27.5737 25.8801 27.9375 25.5164 27.9375 25.0676C27.9375 24.6189 27.5737 24.2551 27.125 24.2551C26.6763 24.2551 26.3125 24.6189 26.3125 25.0676C26.3125 25.5164 26.6763 25.8801 27.125 25.8801Z" fill="#3F4551"/>
<path d="M29.5625 25.8801C30.0112 25.8801 30.375 25.5164 30.375 25.0676C30.375 24.6189 30.0112 24.2551 29.5625 24.2551C29.1138 24.2551 28.75 24.6189 28.75 25.0676C28.75 25.5164 29.1138 25.8801 29.5625 25.8801Z" fill="#3F4551"/>
<path d="M58 51.0676H66.125V52.6926H58V51.0676Z" fill="#3F4551"/>
<path d="M52.7885 52.6926L53.363 53.2671C53.4384 53.3426 53.528 53.4024 53.6266 53.4433C53.7251 53.4841 53.8308 53.5051 53.9375 53.5051C54.0442 53.5051 54.1499 53.4841 54.2484 53.4433C54.347 53.4024 54.4366 53.3426 54.512 53.2671L56.137 51.6421C56.2125 51.5667 56.2723 51.4771 56.3132 51.3786C56.354 51.28 56.375 51.1743 56.375 51.0676V48.6301C56.375 48.5234 56.354 48.4178 56.3132 48.3192C56.2723 48.2206 56.2125 48.131 56.137 48.0556C56.0616 47.9801 55.972 47.9203 55.8734 47.8795C55.7749 47.8386 55.6692 47.8176 55.5625 47.8176H52.3125C52.2058 47.8176 52.1001 47.8386 52.0016 47.8795C51.903 47.9203 51.8134 47.9801 51.738 48.0556C51.6625 48.131 51.6027 48.2206 51.5618 48.3192C51.521 48.4178 51.5 48.5234 51.5 48.6301V51.0676H35.25V52.6926H52.7885ZM53.125 49.4426H54.75V50.7311L53.9375 51.5436L53.125 50.7311V49.4426Z" fill="#3F4551"/>
<path d="M23.875 38.8801H28.75V40.5051H23.875V38.8801Z" fill="#3F4551"/>
<path d="M23.875 42.1301H27.125V43.7551H23.875V42.1301Z" fill="#3F4551"/>
<path d="M23.875 45.3801H28.75V47.0051H23.875V45.3801Z" fill="#3F4551"/>
<path d="M27.125 48.6301H30.375V50.2551H27.125V48.6301Z" fill="#3F4551"/>
<path d="M27.125 51.8801H30.375V53.5051H27.125V51.8801Z" fill="#3F4551"/>
<path d="M40.3956 45.173C40.4808 45.2492 40.581 45.3066 40.6899 45.3415C40.7987 45.3763 40.9136 45.3878 41.0272 45.3752L48.3397 44.5627C48.5231 44.5423 48.6941 44.4601 48.8245 44.3296L51.8365 41.3176H53.7909L53.1361 45.2465C53.1075 45.4179 53.1346 45.594 53.2135 45.7488C53.2923 45.9036 53.4187 46.0291 53.5741 46.1068L55.1991 46.9193C55.2982 46.9688 55.4063 46.9976 55.5168 47.0038C55.6274 47.01 55.738 46.9936 55.842 46.9555C55.9459 46.9175 56.041 46.8585 56.1214 46.7824C56.2017 46.7062 56.2657 46.6144 56.3093 46.5127L58.355 41.7393C58.5597 41.2618 58.6531 40.7441 58.6283 40.2252C58.6035 39.7064 58.4611 39.1999 58.2119 38.7441C57.9627 38.2884 57.6132 37.8952 57.1897 37.5943C56.7663 37.2934 56.28 37.0927 55.7676 37.0073L54.0034 36.7132L55.0866 35.6301H58.8125C58.9883 35.6301 59.1593 35.5731 59.3 35.4676L62.55 33.0301C62.7022 32.916 62.8095 32.752 62.8533 32.5668C62.897 32.3816 62.8743 32.187 62.7892 32.0168L61.9767 30.3918C61.8941 30.2264 61.7575 30.0942 61.5895 30.0169C61.4216 29.9397 61.2323 29.922 61.0529 29.9669L58.0578 30.7157L55.4966 29.6912C55.5403 29.5074 55.5624 29.3191 55.5625 29.1301V26.3823C55.5625 26.0197 55.4698 25.6631 55.2933 25.3464C55.1167 25.0297 54.8621 24.7634 54.5537 24.5728C54.2453 24.3822 53.8932 24.2736 53.531 24.2573C53.1688 24.241 52.8084 24.3176 52.4841 24.4797L51.1366 25.1534C51.0017 25.2209 50.8882 25.3246 50.8088 25.453C50.7295 25.5813 50.6875 25.7292 50.6875 25.8801V28.3176H47.4375C47.3341 28.3176 47.2317 28.3374 47.1357 28.3757L43.0732 30.0007C42.9225 30.0611 42.7932 30.1652 42.7022 30.2996C42.6112 30.4341 42.5625 30.5927 42.5625 30.7551V32.3801C42.5625 32.4868 42.5835 32.5925 42.6243 32.6911C42.6652 32.7896 42.725 32.8792 42.8005 32.9547C42.8759 33.0301 42.9655 33.09 43.0641 33.1308C43.1626 33.1716 43.2683 33.1926 43.375 33.1926H48.0219L47.4775 35.37L45.2094 40.6622L40.6806 42.1718C40.5188 42.2258 40.3781 42.3292 40.2784 42.4676C40.1787 42.6059 40.125 42.7721 40.125 42.9426V44.5676C40.125 44.6819 40.1491 44.7949 40.1957 44.8992C40.2424 45.0035 40.3105 45.0968 40.3956 45.173ZM56.9147 39.8186C57.0545 40.2376 57.0356 40.6933 56.8614 41.0991L55.1551 45.0805L54.8376 44.9218L55.5514 40.6387C55.5708 40.5223 55.5647 40.4031 55.5333 40.2893C55.502 40.1756 55.4462 40.07 55.37 39.98C55.2937 39.8899 55.1987 39.8176 55.0916 39.768C54.9846 39.7183 54.868 39.6926 54.75 39.6926H50.5932C50.2687 39.6926 49.9489 39.6155 49.6601 39.4677C49.3713 39.3198 49.1218 39.1055 48.9321 38.8423C48.7424 38.5791 48.6179 38.2745 48.569 37.9538C48.5201 37.6331 48.548 37.3053 48.6506 36.9975L48.7483 36.7045L52.0107 38.0095C52.065 38.031 52.1214 38.0466 52.1791 38.0559L52.179 38.0566L55.5005 38.6102C55.8239 38.6636 56.1266 38.8044 56.3759 39.0174C56.6251 39.2304 56.8115 39.5075 56.9147 39.8186ZM54.75 34.0051C54.6433 34.0051 54.5376 34.0261 54.4391 34.067C54.3405 34.1078 54.2509 34.1677 54.1755 34.2431L52.1168 36.3017L49.2102 35.1391L49.8508 32.5772C49.8807 32.4574 49.883 32.3324 49.8573 32.2116C49.8317 32.0908 49.7789 31.9774 49.7029 31.8801C49.6269 31.7828 49.5298 31.7041 49.4188 31.6499C49.3078 31.5958 49.186 31.5676 49.0625 31.5676H48.25V29.9426H50.8273C50.9546 30.3035 51.1652 30.6292 51.4419 30.8935C51.7186 31.1578 52.0537 31.3531 52.42 31.4637C52.7864 31.5743 53.1736 31.597 53.5503 31.53C53.927 31.463 54.2827 31.3082 54.5884 31.0781L57.3125 32.1677L57.7719 34.0051H54.75ZM53.9375 29.1301C53.9375 29.3456 53.8519 29.5523 53.6995 29.7047C53.5472 29.857 53.3405 29.9426 53.125 29.9426C52.9095 29.9426 52.7028 29.857 52.5505 29.7047C52.3981 29.5523 52.3125 29.3456 52.3125 29.1301V28.3176H53.9375V29.1301ZM61.0325 32.137L59.304 33.4334L58.9853 32.1588L60.8147 31.7014L61.0325 32.137ZM53.2109 25.9331C53.2874 25.8949 53.3725 25.8768 53.458 25.8806C53.5435 25.8845 53.6266 25.9101 53.6994 25.9551C53.7722 26.0001 53.8323 26.063 53.874 26.1378C53.9157 26.2125 53.9375 26.2967 53.9375 26.3823V26.6926H52.3125V26.3823L53.2109 25.9331ZM44.1875 31.3052L46.625 30.3302V31.5676H44.1875V31.3052ZM41.75 43.5282L46.0694 42.0884C46.1783 42.0521 46.2782 41.9932 46.3626 41.9155C46.4471 41.8378 46.5141 41.7431 46.5593 41.6377L47.4542 39.5495C47.4813 39.594 47.5083 39.6386 47.5374 39.6822C48.0351 40.4301 48.7903 40.9691 49.6594 41.1967L47.877 42.9791L41.75 43.6599V43.5282Z" fill="#3F4551"/>
</svg>
