<svg width="90" height="91" viewBox="0 0 90 91" fill="none" xmlns="http://www.w3.org/2000/svg">
<rect x="0.5" y="0.880127" width="89" height="89" rx="44.5" fill="#070D1B"/>
<rect x="0.5" y="0.880127" width="89" height="89" rx="44.5" stroke="#3F4551"/>
<path d="M67.9531 47.6145H64.127V42.1301C64.127 40.6471 63.0617 39.4088 61.6562 39.1386V28.5224C61.6562 26.5054 60.0153 24.8645 57.9983 24.8645H44.8984C44.3376 24.8645 43.8828 25.3192 43.8828 25.8801C43.8828 26.4411 44.3376 26.8958 44.8984 26.8958H57.9983C58.8953 26.8958 59.625 27.6255 59.625 28.5224V39.0833H46.4557C44.7757 39.0833 43.4088 40.4501 43.4088 42.1301V48.5517H21.0312V28.5224C21.0312 27.6255 21.761 26.8958 22.658 26.8958H35.7578C36.3186 26.8958 36.7734 26.4411 36.7734 25.8801C36.7734 25.3192 36.3186 24.8645 35.7578 24.8645H22.658C20.6409 24.8645 19 26.5054 19 28.5224V51.8074C19 53.8243 20.6409 55.4654 22.658 55.4654H35.1837V59.128C35.1837 61.1276 34.1728 62.9563 32.4797 64.0201C32.0964 64.2609 31.9187 64.7263 32.044 65.1612C32.1692 65.5961 32.5672 65.8956 33.0199 65.8956H67.9531C69.6332 65.8956 71 64.5288 71 62.8488V50.6614C71 48.9813 69.6332 47.6145 67.9531 47.6145ZM46.4557 41.1145H61.0801C61.6401 41.1145 62.0957 41.5701 62.0957 42.1301V47.6145H60.6406C58.9606 47.6145 57.5938 48.9813 57.5938 50.6614V62.8489C57.5938 63.205 57.6557 63.5466 57.7684 63.8645H46.4557C45.8957 63.8645 45.4401 63.4089 45.4401 62.8489V42.1301C45.4401 41.5701 45.8957 41.1145 46.4557 41.1145ZM21.0312 51.8074V50.5829H43.4088V53.434H36.1993H22.658C21.761 53.4341 21.0312 52.7044 21.0312 51.8074ZM37.2149 59.128V55.4654H43.4088V62.8489C43.4088 63.205 43.4708 63.5466 43.5835 63.8645H35.6208C36.6436 62.527 37.2149 60.8758 37.2149 59.128ZM68.9688 62.8489C68.9688 63.4089 68.5131 63.8645 67.9531 63.8645H60.6406C60.0806 63.8645 59.625 63.4089 59.625 62.8489V50.6614C59.625 50.1014 60.0806 49.6458 60.6406 49.6458H67.9531C68.5131 49.6458 68.9688 50.1014 68.9688 50.6614V62.8489Z" fill="#3F4551"/>
<path d="M24.8906 31.0206C24.3298 31.0206 23.875 31.4753 23.875 32.0363V43.4113C23.875 43.9722 24.3298 44.4269 24.8906 44.4269H33.8281C34.389 44.4269 34.8438 43.9722 34.8438 43.4113V32.0363C34.8438 31.4753 34.389 31.0206 33.8281 31.0206H24.8906ZM32.8125 42.3956H25.9062V33.0519H32.8125V42.3956Z" fill="#3F4551"/>
<path d="M38.7031 33.0519H48.9609C49.5218 33.0519 49.9766 32.5972 49.9766 32.0363C49.9766 31.4753 49.5218 31.0206 48.9609 31.0206H38.7031C38.1423 31.0206 37.6875 31.4753 37.6875 32.0363C37.6875 32.5972 38.1423 33.0519 38.7031 33.0519Z" fill="#3F4551"/>
<path d="M38.7031 42.8015C38.9702 42.8015 39.2323 42.6939 39.4211 42.505C39.61 42.315 39.7188 42.054 39.7188 41.7859C39.7188 41.5188 39.6101 41.2567 39.4211 41.0678C39.2323 40.8789 38.9702 40.7703 38.7031 40.7703C38.436 40.7703 38.174 40.8789 37.9851 41.0678C37.7962 41.2567 37.6875 41.5188 37.6875 41.7859C37.6875 42.053 37.7961 42.315 37.9851 42.505C38.174 42.6939 38.436 42.8015 38.7031 42.8015Z" fill="#3F4551"/>
<path d="M38.7031 37.9269H42.5117C43.0725 37.9269 43.5273 37.4722 43.5273 36.9113C43.5273 36.3503 43.0725 35.8956 42.5117 35.8956H38.7031C38.1423 35.8956 37.6875 36.3503 37.6875 36.9113C37.6875 37.4722 38.1423 37.9269 38.7031 37.9269Z" fill="#3F4551"/>
<path d="M64.2969 59.802C64.0298 59.802 63.7677 59.9106 63.5788 60.0996C63.3899 60.2886 63.2812 60.5505 63.2812 60.8176C63.2812 61.0847 63.3898 61.3468 63.5788 61.5356C63.7677 61.7245 64.0298 61.8333 64.2969 61.8333C64.564 61.8333 64.826 61.7246 65.0148 61.5356C65.2038 61.3468 65.3125 61.0847 65.3125 60.8176C65.3125 60.5505 65.2038 60.2885 65.0148 60.0996C64.826 59.9106 64.564 59.802 64.2969 59.802Z" fill="#3F4551"/>
<path d="M53.7679 61.8333C54.035 61.8333 54.297 61.7246 54.4858 61.5356C54.6747 61.3468 54.7835 61.0847 54.7835 60.8176C54.7835 60.5505 54.6748 60.2885 54.4858 60.0996C54.297 59.9107 54.035 59.802 53.7679 59.802C53.5008 59.802 53.2387 59.9106 53.0498 60.0996C52.8609 60.2886 52.7523 60.5505 52.7523 60.8176C52.7523 61.0847 52.8608 61.3468 53.0498 61.5356C53.2387 61.7246 53.5008 61.8333 53.7679 61.8333Z" fill="#3F4551"/>
<path d="M40.3281 26.8958C40.5952 26.8958 40.8573 26.7871 41.0461 26.5982C41.2351 26.4093 41.3438 26.1472 41.3438 25.8801C41.3438 25.613 41.2351 25.351 41.0461 25.1621C40.8573 24.9732 40.5952 24.8645 40.3281 24.8645C40.061 24.8645 39.799 24.9732 39.6101 25.1621C39.4212 25.351 39.3125 25.613 39.3125 25.8801C39.3125 26.1472 39.4211 26.4093 39.6101 26.5982C39.7991 26.7871 40.061 26.8958 40.3281 26.8958Z" fill="#3F4551"/>
</svg>
