<svg width="90" height="91" viewBox="0 0 90 91" fill="none" xmlns="http://www.w3.org/2000/svg">
<rect x="0.5" y="1.09009" width="89" height="89" rx="44.5" fill="#070D1B"/>
<rect x="0.5" y="1.09009" width="89" height="89" rx="44.5" stroke="#3F4551"/>
<path d="M69.8771 56.1526L65.8146 48.0276H64.5V20.4026H53.125V48.0276H37.6875V34.0388L33.8882 25.6814C33.5527 24.9428 32.8117 24.4651 32 24.4651C31.1883 24.4651 30.4473 24.9428 30.1117 25.6806L26.3125 34.0388V48.0276H24.1854L20.1229 56.1526H24.6875V70.7776H65.3125V56.1526H69.8771ZM54.75 44.7776H59.625V43.1526H54.75V41.5276H58V39.9026H54.75V38.2776H59.625V36.6526H54.75V35.0276H58V33.4026H54.75V31.7776H59.625V30.1526H54.75V28.5276H58V26.9026H54.75V25.2776H59.625V23.6526H54.75V22.0276H62.875V48.0276H54.75V44.7776ZM64.8104 49.6526L67.2479 54.5276H49.5646L47.1271 49.6526H64.8104ZM32.8084 48.0276V35.7328L34.4351 36.8159L36.0625 35.732V48.0276H32.8084ZM35.8496 33.9218L34.4351 34.8635L31.9959 33.2377L29.5601 34.8627L28.1504 33.9218L29.4942 30.9651H34.5049L35.8496 33.9218ZM31.5905 26.3525C31.7367 26.0332 32.2632 26.0324 32.4095 26.3533L33.7664 29.3401H30.2328L31.5905 26.3525ZM27.9375 35.7345L29.5601 36.8175L31.1834 35.7345V48.0276H27.9375V35.7345ZM25.1896 49.6526H42.8729L40.4354 54.5276H22.7521L25.1896 49.6526ZM26.3125 56.1526H41.4396L44.1875 50.6568V69.1526H26.3125V56.1526ZM63.6875 69.1526H45.8125V50.6568L48.5604 56.1526H63.6875V69.1526Z" fill="#3F4551"/>
<path d="M34.4375 65.9026H36.0625V67.5276H34.4375V65.9026Z" fill="#3F4551"/>
<path d="M27.9375 65.9026H29.5625V67.5276H27.9375V65.9026Z" fill="#3F4551"/>
<path d="M31.1875 65.9026H32.8125V67.5276H31.1875V65.9026Z" fill="#3F4551"/>
<path d="M27.9375 62.6526H36.0625V64.2776H27.9375V62.6526Z" fill="#3F4551"/>
<path d="M41.75 27.4364C41.75 26.2461 42.7185 25.2776 43.9088 25.2776H44.4662C45.6565 25.2776 46.625 26.2461 46.625 27.4364C46.625 28.0125 46.4008 28.5544 45.9929 28.9631L41.75 33.206V39.9026H46.625V35.2242L49.4395 32.4097C50.7688 31.0813 51.5 29.3149 51.5 27.4364C51.5 23.5583 48.3442 20.4026 44.4662 20.4026H43.9088C40.0307 20.4026 36.875 23.5583 36.875 27.4364V29.3401H41.75V27.4364ZM40.125 27.4364V27.7151H38.5V27.4364C38.5 24.4537 40.9261 22.0276 43.9088 22.0276H44.4662C47.4489 22.0276 49.875 24.4537 49.875 27.4364C49.875 28.8802 49.3127 30.2387 48.2906 31.2608L45 34.5515V38.2776H43.375V33.8787L47.1426 30.112C47.8568 29.3962 48.25 28.4455 48.25 27.4364C48.25 25.3499 46.5527 23.6526 44.4662 23.6526H43.9088C41.8223 23.6526 40.125 25.3499 40.125 27.4364Z" fill="#3F4551"/>
<path d="M41.75 43.9651C41.75 45.309 42.8436 46.4026 44.1875 46.4026C45.5314 46.4026 46.625 45.309 46.625 43.9651C46.625 42.6212 45.5314 41.5276 44.1875 41.5276C42.8436 41.5276 41.75 42.6212 41.75 43.9651ZM45 43.9651C45 44.4136 44.636 44.7776 44.1875 44.7776C43.739 44.7776 43.375 44.4136 43.375 43.9651C43.375 43.5166 43.739 43.1526 44.1875 43.1526C44.636 43.1526 45 43.5166 45 43.9651Z" fill="#3F4551"/>
</svg>
