<svg width="90" height="91" viewBox="0 0 90 91" fill="none" xmlns="http://www.w3.org/2000/svg">
<rect x="0.5" y="1.09009" width="89" height="89" rx="44.5" fill="#070D1B"/>
<rect x="0.5" y="1.09009" width="89" height="89" rx="44.5" stroke="#3F4551"/>
<path d="M53.125 34.2151C52.9095 34.2151 52.7028 34.3007 52.5505 34.4531C52.3981 34.6054 52.3125 34.8121 52.3125 35.0276V45.5901C52.3125 45.8056 52.3981 46.0122 52.5505 46.1646C52.7028 46.317 52.9095 46.4026 53.125 46.4026C53.3405 46.4026 53.5472 46.317 53.6995 46.1646C53.8519 46.0122 53.9375 45.8056 53.9375 45.5901V35.0276C53.9375 34.8121 53.8519 34.6054 53.6995 34.4531C53.5472 34.3007 53.3405 34.2151 53.125 34.2151Z" fill="#3F4551"/>
<path d="M53.125 47.2151C52.9095 47.2151 52.7028 47.3007 52.5505 47.4531C52.3981 47.6054 52.3125 47.8121 52.3125 48.0276V48.8401C52.3125 49.0556 52.3981 49.2622 52.5505 49.4146C52.7028 49.567 52.9095 49.6526 53.125 49.6526C53.3405 49.6526 53.5472 49.567 53.6995 49.4146C53.8519 49.2622 53.9375 49.0556 53.9375 48.8401V48.0276C53.9375 47.8121 53.8519 47.6054 53.6995 47.4531C53.5472 47.3007 53.3405 47.2151 53.125 47.2151Z" fill="#3F4551"/>
<path d="M69.375 22.0276H20.625C20.4095 22.0276 20.2028 22.1132 20.0505 22.2656C19.8981 22.4179 19.8125 22.6246 19.8125 22.8401V58.5901C19.8125 58.8056 19.8981 59.0122 20.0505 59.1646C20.2028 59.317 20.4095 59.4026 20.625 59.4026H49.875V65.9026C49.875 66.7645 50.2174 67.5912 50.8269 68.2007C51.4364 68.8102 52.263 69.1526 53.125 69.1526C53.987 69.1526 54.8136 68.8102 55.4231 68.2007C56.0326 67.5912 56.375 66.7645 56.375 65.9026V59.4026H61.25C61.4655 59.4027 61.6723 59.3172 61.8248 59.1649L69.9498 51.0399C70.1021 50.8874 70.1876 50.6806 70.1875 50.4651V22.8401C70.1875 22.6246 70.1019 22.4179 69.9495 22.2656C69.7972 22.1132 69.5905 22.0276 69.375 22.0276ZM54.75 65.9026C54.75 66.3336 54.5788 66.7469 54.274 67.0516C53.9693 67.3564 53.556 67.5276 53.125 67.5276C52.694 67.5276 52.2807 67.3564 51.976 67.0516C51.6712 66.7469 51.5 66.3336 51.5 65.9026V64.2776H54.75V65.9026ZM54.75 62.6526H51.5V61.8401H54.75V62.6526ZM54.75 60.2151H51.5V33.4026H54.75V60.2151ZM54.75 31.7776H51.5V31.157L51.5955 30.9651H54.6545L54.75 31.157V31.7776ZM52.408 29.3401L53.125 27.907L53.842 29.3401H52.408ZM62.0625 56.6289V51.2776H67.4138L62.0625 56.6289ZM68.5625 49.6526H61.25C61.0345 49.6526 60.8278 49.7382 60.6755 49.8906C60.5231 50.0429 60.4375 50.2496 60.4375 50.4651V57.7776H56.375V30.9651C56.3749 30.8389 56.3457 30.7145 56.2897 30.6015L53.8522 25.7265C53.7846 25.5916 53.6807 25.4781 53.5523 25.3988C53.4239 25.3195 53.2759 25.2776 53.125 25.2776C52.9741 25.2776 52.8261 25.3195 52.6977 25.3988C52.5693 25.4781 52.4654 25.5916 52.3978 25.7265L49.9603 30.6015C49.9043 30.7145 49.8751 30.8389 49.875 30.9651V57.7776H21.4375V23.6526H68.5625V49.6526Z" fill="#3F4551"/>
<path d="M23.875 26.9026H31.1875C31.403 26.9026 31.6097 26.817 31.762 26.6646C31.9144 26.5122 32 26.3056 32 26.0901C32 25.8746 31.9144 25.6679 31.762 25.5156C31.6097 25.3632 31.403 25.2776 31.1875 25.2776H23.875C23.6595 25.2776 23.4528 25.3632 23.3005 25.5156C23.1481 25.6679 23.0625 25.8746 23.0625 26.0901C23.0625 26.3056 23.1481 26.5122 23.3005 26.6646C23.4528 26.817 23.6595 26.9026 23.875 26.9026Z" fill="#3F4551"/>
<path d="M27.125 28.5276C27.125 28.3121 27.0394 28.1054 26.887 27.9531C26.7347 27.8007 26.528 27.7151 26.3125 27.7151H23.875C23.6595 27.7151 23.4528 27.8007 23.3005 27.9531C23.1481 28.1054 23.0625 28.3121 23.0625 28.5276C23.0625 28.7431 23.1481 28.9497 23.3005 29.1021C23.4528 29.2545 23.6595 29.3401 23.875 29.3401H26.3125C26.528 29.3401 26.7347 29.2545 26.887 29.1021C27.0394 28.9497 27.125 28.7431 27.125 28.5276Z" fill="#3F4551"/>
<path d="M48.25 28.5276C45.4496 28.5308 42.7649 29.6446 40.7847 31.6248C38.8045 33.6049 37.6907 36.2897 37.6875 39.0901C37.6875 39.3056 37.7731 39.5122 37.9255 39.6646C38.0778 39.817 38.2845 39.9026 38.5 39.9026C38.7155 39.9026 38.9222 39.817 39.0745 39.6646C39.2269 39.5122 39.3125 39.3056 39.3125 39.0901C39.3152 36.7205 40.2577 34.4488 41.9332 32.7733C43.6087 31.0978 45.8805 30.1553 48.25 30.1526C48.4655 30.1526 48.6722 30.067 48.8245 29.9146C48.9769 29.7622 49.0625 29.5556 49.0625 29.3401C49.0625 29.1246 48.9769 28.9179 48.8245 28.7656C48.6722 28.6132 48.4655 28.5276 48.25 28.5276Z" fill="#3F4551"/>
<path d="M43.375 38.2776C43.1595 38.2776 42.9528 38.3632 42.8005 38.5156C42.6481 38.6679 42.5625 38.8746 42.5625 39.0901C42.5601 41.2442 41.7032 43.3094 40.18 44.8326C38.6568 46.3558 36.5916 47.2126 34.4375 47.2151C34.222 47.2151 34.0153 47.3007 33.863 47.4531C33.7106 47.6054 33.625 47.8121 33.625 48.0276C33.625 48.2431 33.7106 48.4497 33.863 48.6021C34.0153 48.7545 34.222 48.8401 34.4375 48.8401C37.0225 48.8372 39.5007 47.809 41.3286 45.9812C43.1564 44.1533 44.1846 41.6751 44.1875 39.0901C44.1875 38.8746 44.1019 38.6679 43.9495 38.5156C43.7972 38.3632 43.5905 38.2776 43.375 38.2776Z" fill="#3F4551"/>
<path d="M65.3125 39.0901C65.3125 39.3056 65.3981 39.5122 65.5505 39.6646C65.7028 39.817 65.9095 39.9026 66.125 39.9026C66.3405 39.9026 66.5472 39.817 66.6995 39.6646C66.8519 39.5122 66.9375 39.3056 66.9375 39.0901C66.9351 36.936 66.0782 34.8707 64.555 33.3475C63.0318 31.8243 60.9666 30.9675 58.8125 30.9651C58.597 30.9651 58.3903 31.0507 58.238 31.2031C58.0856 31.3554 58 31.5621 58 31.7776C58 31.9931 58.0856 32.1997 58.238 32.3521C58.3903 32.5045 58.597 32.5901 58.8125 32.5901C60.5358 32.592 62.188 33.2775 63.4066 34.496C64.6251 35.7146 65.3106 37.3668 65.3125 39.0901Z" fill="#3F4551"/>
<path d="M36.0625 41.5276C36.0625 40.5634 35.7766 39.6209 35.2409 38.8192C34.7052 38.0175 33.9439 37.3927 33.0531 37.0237C32.1623 36.6547 31.1821 36.5582 30.2364 36.7463C29.2908 36.9344 28.4221 37.3987 27.7404 38.0804C27.0586 38.7622 26.5943 39.6309 26.4062 40.5765C26.2181 41.5222 26.3146 42.5024 26.6836 43.3932C27.0526 44.284 27.6774 45.0453 28.4791 45.581C29.2808 46.1167 30.2233 46.4026 31.1875 46.4026C32.48 46.4012 33.7191 45.8871 34.6331 44.9732C35.547 44.0592 36.0611 42.8201 36.0625 41.5276ZM31.1875 44.7776C30.5447 44.7776 29.9164 44.587 29.3819 44.2299C28.8474 43.8728 28.4309 43.3652 28.1849 42.7713C27.9389 42.1775 27.8745 41.524 27.9999 40.8935C28.1254 40.2631 28.4349 39.684 28.8894 39.2295C29.3439 38.775 29.923 38.4654 30.5535 38.34C31.1839 38.2146 31.8374 38.279 32.4312 38.525C33.0251 38.771 33.5327 39.1875 33.8898 39.722C34.2469 40.2564 34.4375 40.8848 34.4375 41.5276C34.4365 42.3892 34.0938 43.2153 33.4845 43.8246C32.8752 44.4339 32.0492 44.7766 31.1875 44.7776Z" fill="#3F4551"/>
<path d="M45.8125 48.8401C45.3304 48.8401 44.8591 48.983 44.4583 49.2509C44.0575 49.5187 43.745 49.8994 43.5605 50.3448C43.3761 50.7902 43.3278 51.2803 43.4218 51.7531C43.5159 52.2259 43.748 52.6603 44.0889 53.0012C44.4298 53.3421 44.8641 53.5742 45.337 53.6683C45.8098 53.7623 46.2999 53.714 46.7453 53.5295C47.1907 53.3451 47.5714 53.0326 47.8392 52.6318C48.107 52.2309 48.25 51.7597 48.25 51.2776C48.2492 50.6314 47.9922 50.0118 47.5352 49.5548C47.0783 49.0979 46.4587 48.8408 45.8125 48.8401ZM45.8125 52.0901C45.6518 52.0901 45.4947 52.0424 45.3611 51.9532C45.2275 51.8639 45.1233 51.737 45.0619 51.5885C45.0004 51.4401 44.9843 51.2767 45.0156 51.1191C45.047 50.9615 45.1243 50.8167 45.238 50.7031C45.3516 50.5894 45.4964 50.5121 45.654 50.4807C45.8116 50.4493 45.975 50.4654 46.1234 50.5269C46.2719 50.5884 46.3988 50.6926 46.4881 50.8262C46.5773 50.9598 46.625 51.1169 46.625 51.2776C46.6248 51.493 46.5391 51.6995 46.3868 51.8518C46.2344 52.0042 46.0279 52.0898 45.8125 52.0901Z" fill="#3F4551"/>
<path d="M62.875 30.9651C63.3571 30.9651 63.8284 30.8221 64.2292 30.5543C64.63 30.2865 64.9425 29.9058 65.127 29.4604C65.3114 29.015 65.3597 28.5249 65.2657 28.0521C65.1716 27.5792 64.9395 27.1449 64.5986 26.804C64.2577 26.4631 63.8234 26.231 63.3505 26.1369C62.8777 26.0429 62.3876 26.0911 61.9422 26.2756C61.4968 26.4601 61.1161 26.7725 60.8483 27.1734C60.5805 27.5742 60.4375 28.0455 60.4375 28.5276C60.4383 29.1738 60.6953 29.7934 61.1523 30.2503C61.6092 30.7073 62.2288 30.9643 62.875 30.9651ZM62.875 27.7151C63.0357 27.7151 63.1928 27.7627 63.3264 27.852C63.46 27.9413 63.5642 28.0682 63.6257 28.2167C63.6871 28.3651 63.7032 28.5285 63.6719 28.6861C63.6405 28.8437 63.5632 28.9885 63.4495 29.1021C63.3359 29.2157 63.1911 29.2931 63.0335 29.3245C62.8759 29.3558 62.7125 29.3397 62.5641 29.2782C62.4156 29.2167 62.2887 29.1126 62.1994 28.979C62.1102 28.8454 62.0625 28.6883 62.0625 28.5276C62.0627 28.3122 62.1484 28.1057 62.3007 27.9533C62.4531 27.801 62.6596 27.7153 62.875 27.7151Z" fill="#3F4551"/>
</svg>
