<svg width="90" height="91" viewBox="0 0 90 91" fill="none" xmlns="http://www.w3.org/2000/svg">
<rect x="0.5" y="1.09009" width="89" height="89" rx="44.5" fill="#070D1B"/>
<rect x="0.5" y="1.09009" width="89" height="89" rx="44.5" stroke="#3F4551"/>
<path d="M55.5625 30.1526H47.4375C46.9888 30.1526 46.625 30.5164 46.625 30.9651V39.0901C46.625 39.5388 46.9888 39.9026 47.4375 39.9026H55.5625C56.0112 39.9026 56.375 39.5388 56.375 39.0901V30.9651C56.375 30.5164 56.0112 30.1526 55.5625 30.1526ZM48.25 38.2776V32.926L53.6016 38.2776H48.25ZM54.75 37.1279L49.3997 31.7776H54.75V37.1279Z" fill="#3F4551"/>
<path d="M55.5625 41.5276H47.4375C46.9888 41.5276 46.625 41.8914 46.625 42.3401V50.4651C46.625 50.9138 46.9888 51.2776 47.4375 51.2776H55.5625C56.0112 51.2776 56.375 50.9138 56.375 50.4651V42.3401C56.375 41.8914 56.0112 41.5276 55.5625 41.5276ZM48.25 49.6526V44.3018L53.6008 49.6526H48.25ZM54.75 48.5037L49.3989 43.1526H54.75V48.5037Z" fill="#3F4551"/>
<path d="M53.125 52.9026H46.625V54.5276H53.125V52.9026Z" fill="#3F4551"/>
<path d="M56.375 52.9026H54.75V54.5276H56.375V52.9026Z" fill="#3F4551"/>
<path d="M56.375 56.1526H46.625V57.7776H56.375V56.1526Z" fill="#3F4551"/>
<path d="M56.375 59.4026H46.625V61.0276H56.375V59.4026Z" fill="#3F4551"/>
<path d="M40.9375 38.2776H32.8125V39.9026H40.9375V38.2776Z" fill="#3F4551"/>
<path d="M40.9375 44.7776H32.8125V46.4026H40.9375V44.7776Z" fill="#3F4551"/>
<path d="M40.9375 51.2776H32.8125V52.9026H40.9375V51.2776Z" fill="#3F4551"/>
<path d="M66.125 25.2776C65.6763 25.2776 65.3125 25.6414 65.3125 26.0901V29.3401H60.4375V21.2151C60.4375 20.3176 59.71 19.5901 58.8125 19.5901H31.1875C30.29 19.5901 29.5625 20.3176 29.5625 21.2151V29.3401H24.6875V26.0901C24.6875 25.6414 24.3237 25.2776 23.875 25.2776C23.8263 25.2776 19 25.3515 19 31.7776V63.4651C19 66.5631 22.0875 67.998 23.7125 68.3238C23.7659 68.3351 23.8204 68.3406 23.875 68.3401H29.5625V69.9651C29.5625 70.8626 30.29 71.5901 31.1875 71.5901H58.8125C59.71 71.5901 60.4375 70.8626 60.4375 69.9651V68.3401H66.125C66.1796 68.3406 66.2341 68.3351 66.2875 68.3238C67.9125 67.998 71 66.5631 71 63.4651V31.7776C71 25.3515 66.1738 25.2776 66.125 25.2776ZM20.625 31.7776C20.625 28.4626 22.0875 27.4015 23.0625 27.0651V58.7761C22.1715 59.0526 21.3434 59.5012 20.625 60.0965V31.7776ZM29.5625 66.7151H23.9644C23.4793 66.5989 20.625 65.814 20.625 63.4651C20.625 60.9301 23.9002 60.2273 24.0375 60.1988C24.4158 60.1217 24.6876 59.7887 24.6875 59.4026V30.9651H29.5625V66.7151ZM31.1875 28.5276H40.5434L31.1875 34.3718V28.5276ZM42.5625 29.1824V35.0276H33.2049L42.5625 29.1824ZM31.1875 36.6526H42.5625V41.5276H31.1875V36.6526ZM31.1875 43.1526H42.5625V48.0276H31.1875V43.1526ZM31.1875 49.6526H42.5625V54.5276H31.1875V49.6526ZM31.1875 56.1526H40.7533L31.1875 62.7261V56.1526ZM42.5625 56.881V63.4651H32.9814L42.5625 56.881ZM58.8125 69.9651H31.1875V65.0901H58.8125V69.9651ZM58.8125 63.4651H44.1875V28.5276H58.8125V63.4651ZM58.8125 26.9026H31.1875V21.2151H58.8125V26.9026ZM66.0372 66.7151H60.4375V30.9651H65.3125V59.4026C65.3124 59.7887 65.5842 60.1217 65.9625 60.1988C65.9999 60.2062 69.375 60.9106 69.375 63.4651C69.375 65.827 66.5386 66.5973 66.0372 66.7151ZM69.375 60.0965C68.6566 59.5012 67.8285 59.0526 66.9375 58.7761V27.0651C67.9019 27.4023 69.375 28.4642 69.375 31.7776V60.0965Z" fill="#3F4551"/>
<path d="M45.8125 23.6526H39.3125V25.2776H45.8125V23.6526Z" fill="#3F4551"/>
<path d="M49.0625 23.6526H47.4375V25.2776H49.0625V23.6526Z" fill="#3F4551"/>
<path d="M52.3125 23.6526H50.6875V25.2776H52.3125V23.6526Z" fill="#3F4551"/>
</svg>
