<svg width="90" height="91" viewBox="0 0 90 91" fill="none" xmlns="http://www.w3.org/2000/svg">
<rect x="0.5" y="0.880127" width="89" height="89" rx="44.5" fill="#070D1B"/>
<rect x="0.5" y="0.880127" width="89" height="89" rx="44.5" stroke="#3F4551"/>
<path d="M40.9375 65.6926H35.25C35.0345 65.6926 34.8278 65.7782 34.6755 65.9306C34.5231 66.083 34.4375 66.2896 34.4375 66.5051C34.4375 66.7206 34.5231 66.9273 34.6755 67.0797C34.8278 67.232 35.0345 67.3176 35.25 67.3176H40.9375C41.153 67.3176 41.3597 67.232 41.512 67.0797C41.6644 66.9273 41.75 66.7206 41.75 66.5051C41.75 66.2896 41.6644 66.083 41.512 65.9306C41.3597 65.7782 41.153 65.6926 40.9375 65.6926Z" fill="#3F4551"/>
<path d="M44.1875 65.6926H43.375C43.1595 65.6926 42.9528 65.7782 42.8005 65.9306C42.6481 66.083 42.5625 66.2896 42.5625 66.5051C42.5625 66.7206 42.6481 66.9273 42.8005 67.0797C42.9528 67.232 43.1595 67.3176 43.375 67.3176H44.1875C44.403 67.3176 44.6097 67.232 44.762 67.0797C44.9144 66.9273 45 66.7206 45 66.5051C45 66.2896 44.9144 66.083 44.762 65.9306C44.6097 65.7782 44.403 65.6926 44.1875 65.6926Z" fill="#3F4551"/>
<path d="M63.9597 56.2961L58.8125 51.1489V36.1654L61.0875 33.8904C61.1768 33.8012 61.2439 33.6923 61.2835 33.5725L63.007 28.4009C63.0548 28.2577 63.0617 28.1041 63.027 27.9572C62.9924 27.8104 62.9175 27.6761 62.8108 27.5693C62.7041 27.4626 62.5698 27.3877 62.4229 27.3531C62.276 27.3184 62.1224 27.3254 61.9792 27.3731L58.8125 28.4283V23.4426C58.8114 22.581 58.4686 21.755 57.8593 21.1458C57.2501 20.5365 56.4241 20.1938 55.5625 20.1926H34.4375C33.5759 20.1938 32.7499 20.5365 32.1406 21.1458C31.5314 21.755 31.1886 22.581 31.1875 23.4426V28.1683L26.0403 33.3155C25.8881 33.4679 25.8025 33.6745 25.8025 33.8899C25.8025 34.1053 25.8881 34.3118 26.0403 34.4642L31.1875 39.6114V54.5959L27.189 58.5944C26.6271 59.1576 26.2912 59.9072 26.2449 60.7014C26.1987 61.4956 26.4453 62.2792 26.9381 62.9037C27.4308 63.5283 28.1355 63.9505 28.9187 64.0903C29.7018 64.2301 30.5091 64.0779 31.1875 63.6624V67.3176C31.1886 68.1792 31.5314 69.0052 32.1406 69.6145C32.7499 70.2237 33.5759 70.5665 34.4375 70.5676H55.5625C56.4241 70.5665 57.2501 70.2237 57.8593 69.6145C58.4686 69.0052 58.8114 68.1792 58.8125 67.3176V62.5919L63.9597 57.4447C64.1119 57.2924 64.1975 57.0858 64.1975 56.8704C64.1975 56.655 64.1119 56.4484 63.9597 56.2961ZM60.9514 29.4287L60.4446 30.9491L59.431 29.9355L60.9514 29.4287ZM57.7065 30.5093L59.8708 32.6736L59.8027 32.8768L59.364 33.3155L57.0646 31.0161L57.5034 30.5774L57.7065 30.5093ZM50.1716 42.5079L49.5967 41.9331L56.4908 35.039C56.5663 34.9635 56.6262 34.8739 56.667 34.7753C56.7079 34.6767 56.7289 34.5709 56.7289 34.4642C56.7289 34.3574 56.7079 34.2517 56.667 34.1531C56.6262 34.0545 56.5663 33.9648 56.4908 33.8893C56.4153 33.8139 56.3257 33.754 56.227 33.7131C56.1284 33.6723 56.0227 33.6512 55.9159 33.6512C55.8092 33.6512 55.7035 33.6723 55.6048 33.7131C55.5062 33.754 55.4166 33.8139 55.3411 33.8893L48.447 40.7834L47.8722 40.2096L55.9159 32.1658L58.2143 34.4652L57.4282 35.2513L57.4231 35.2564L50.1716 42.5079ZM57.1875 37.7904V49.5239L51.3212 43.6576L57.1875 37.7904ZM48.8025 21.8176L48.3455 23.4426H41.5723L41.166 21.8176H48.8025ZM32.8125 23.4426C32.8131 23.0118 32.9844 22.5988 33.2891 22.2942C33.5937 21.9896 34.0067 21.8182 34.4375 21.8176H39.4902L40.1494 24.4522C40.1933 24.6279 40.2947 24.784 40.4375 24.8955C40.5803 25.007 40.7563 25.0676 40.9375 25.0676H48.9609C49.138 25.0676 49.3102 25.0098 49.4514 24.9029C49.5926 24.796 49.6949 24.6459 49.743 24.4755L50.4905 21.8176H55.5625C55.9933 21.8182 56.4063 21.9896 56.7109 22.2942C57.0155 22.5988 57.1869 23.0118 57.1875 23.4426V28.9697L56.8077 29.0966C56.6878 29.1362 56.579 29.2034 56.4898 29.2926L46.7235 39.0599L34.0841 26.4204C33.9317 26.2682 33.7251 26.1827 33.5097 26.1827C33.2943 26.1827 33.0877 26.2682 32.9354 26.4204L32.8125 26.5433V23.4426ZM30.638 62.0415C30.4871 62.1924 30.308 62.3122 30.1108 62.3939C29.9136 62.4757 29.7022 62.5178 29.4887 62.5178C29.2752 62.5179 29.0639 62.4759 28.8666 62.3942C28.6694 62.3126 28.4902 62.1929 28.3392 62.042C28.1882 61.891 28.0684 61.7119 27.9867 61.5147C27.905 61.3175 27.8629 61.1061 27.8628 60.8926C27.8628 60.6792 27.9048 60.4678 27.9864 60.2705C28.0681 60.0733 28.1878 59.8941 28.3387 59.7431L29.4873 58.5934L31.7867 60.8928L30.638 62.0415ZM30.637 57.4447L31.2119 56.8709L33.5092 59.1683L32.9354 59.7431L30.637 57.4447ZM39.8294 48.2533L42.1278 50.5517L34.6589 58.0206L32.3605 55.7212L39.8294 48.2533ZM32.8125 52.9709V41.2364L38.6798 47.1036L32.8125 52.9709ZM57.1875 67.3176C57.1869 67.7484 57.0155 68.1614 56.7109 68.4661C56.4063 68.7707 55.9933 68.9421 55.5625 68.9426H34.4375C34.0067 68.9421 33.5937 68.7707 33.2891 68.4661C32.9844 68.1614 32.8131 67.7484 32.8125 67.3176V62.1643L43.2775 51.7014L55.9159 64.3398C56.0683 64.4921 56.2749 64.5776 56.4903 64.5776C56.7057 64.5776 56.9122 64.4921 57.0646 64.3398L57.1875 64.2169V67.3176ZM56.4908 62.6163L54.1924 60.3179L54.7673 59.7431C54.9196 59.5906 55.0051 59.3839 55.005 59.1684C55.0049 58.9529 54.9192 58.7462 54.7668 58.5939C54.6913 58.5185 54.6017 58.4587 54.5031 58.4179C54.4044 58.3771 54.2988 58.3561 54.1921 58.3562C53.9765 58.3563 53.7699 58.442 53.6176 58.5944L53.0437 59.1683L51.8941 58.0196L53.6176 56.2961C53.7635 56.1425 53.8437 55.9379 53.841 55.726C53.8383 55.5142 53.7529 55.3117 53.6031 55.1619C53.4532 55.0121 53.2508 54.9267 53.0389 54.924C52.8271 54.9213 52.6225 55.0015 52.4689 55.1474L50.7454 56.8709L49.5957 55.7212L50.1705 55.1474C50.323 54.9951 50.4087 54.7884 50.4088 54.5729C50.4089 54.3574 50.3234 54.1507 50.1711 53.9982C50.0187 53.8458 49.8121 53.7601 49.5966 53.76C49.3811 53.7599 49.1743 53.8454 49.0219 53.9977L48.447 54.5725L47.2984 53.4239L49.0219 51.7004C49.0974 51.6249 49.1572 51.5353 49.1981 51.4366C49.239 51.338 49.26 51.2323 49.26 51.1255C49.26 51.0188 49.239 50.913 49.1981 50.8144C49.1572 50.7158 49.0974 50.6262 49.0219 50.5507C48.9464 50.4752 48.8568 50.4153 48.7581 50.3744C48.6595 50.3336 48.5538 50.3126 48.447 50.3126C48.3403 50.3126 48.2346 50.3336 48.1359 50.3744C48.0373 50.4153 47.9477 50.4752 47.8722 50.5507L46.1487 52.2742L45 51.1255L45.5748 50.5507C45.6503 50.4752 45.7101 50.3856 45.7509 50.287C45.7917 50.1884 45.8126 50.0827 45.8126 49.976C45.8125 49.8693 45.7915 49.7636 45.7506 49.665C45.7097 49.5665 45.6498 49.4769 45.5743 49.4015C45.4988 49.3261 45.4092 49.2663 45.3106 49.2255C45.212 49.1847 45.1063 49.1637 44.9996 49.1637C44.8929 49.1638 44.7873 49.1849 44.6887 49.2257C44.5901 49.2666 44.5006 49.3265 44.4252 49.402L43.8513 49.9758C43.8506 49.9757 43.8498 49.9754 43.8493 49.9748L42.7016 48.8272L44.4252 47.1036C44.5711 46.95 44.6513 46.7455 44.6485 46.5336C44.6458 46.3217 44.5605 46.1193 44.4106 45.9695C44.2608 45.8197 44.0584 45.7343 43.8465 45.7316C43.6346 45.7289 43.4301 45.809 43.2765 45.955L41.553 47.6785L40.4063 46.5318C40.4053 46.5308 40.4053 46.5298 40.4043 46.5288L40.9781 45.955C41.1306 45.8026 41.2163 45.596 41.2164 45.3805C41.2165 45.165 41.131 44.9583 40.9786 44.8058C40.8263 44.6533 40.6197 44.5676 40.4041 44.5675C40.1886 44.5674 39.9819 44.653 39.8294 44.8053L39.2546 45.3801L38.1059 44.2315L39.8294 42.5079C39.9819 42.3555 40.0676 42.1487 40.0676 41.9331C40.0676 41.7175 39.9819 41.5107 39.8294 41.3583C39.677 41.2058 39.4702 41.1201 39.2546 41.1201C39.039 41.1201 38.8322 41.2058 38.6798 41.3583L36.9562 43.0818L35.8076 41.9331L36.3824 41.3583C36.4578 41.2828 36.5177 41.1932 36.5584 41.0945C36.5992 40.9959 36.6202 40.8903 36.6202 40.7836C36.6201 40.6768 36.5991 40.5712 36.5582 40.4726C36.5173 40.374 36.4574 40.2845 36.3819 40.2091C36.3064 40.1336 36.2168 40.0738 36.1182 40.033C36.0196 39.9922 35.9139 39.9713 35.8072 39.9713C35.7005 39.9714 35.5948 39.9924 35.4963 40.0333C35.3977 40.0742 35.3082 40.1341 35.2327 40.2096L34.6589 40.7844L33.5092 39.6347L35.2327 37.9112C35.3787 37.7576 35.4588 37.5531 35.4561 37.3412C35.4534 37.1293 35.368 36.9269 35.2182 36.7771C35.0684 36.6272 34.866 36.5419 34.6541 36.5392C34.4422 36.5364 34.2377 36.6166 34.0841 36.7625L32.3605 38.4861L31.2119 37.3364L31.7857 36.7625C31.9382 36.6102 32.0239 36.4036 32.024 36.1881C32.0241 35.9726 31.9385 35.7658 31.7862 35.6134C31.6339 35.4609 31.4272 35.3752 31.2117 35.3751C30.9962 35.375 30.7895 35.4605 30.637 35.6129L30.0622 36.1877L27.7638 33.8893L31.7857 29.8685L60.5116 58.5944L56.4908 62.6163ZM61.6613 57.4447L32.9354 28.7188L33.5092 28.144L46.1466 40.7814C46.1477 40.7824 46.1477 40.7834 46.1487 40.7844C46.1497 40.7854 46.1507 40.7854 46.1517 40.7865L47.8712 42.5069C47.8722 42.5069 47.8722 42.5069 47.8722 42.5079C47.8722 42.509 47.8732 42.5079 47.8732 42.509L49.5947 44.2294C49.5957 44.2304 49.5957 44.2315 49.5967 44.2325C49.5977 44.2335 49.5987 44.2335 49.5998 44.2345L57.4221 52.0568C57.4239 52.0597 57.4264 52.0621 57.4292 52.064L62.2362 56.8709L61.6613 57.4447Z" fill="#3F4551"/>
</svg>
