<svg width="16" height="16" viewBox="0 0 16 16" fill="none" xmlns="http://www.w3.org/2000/svg">
<path d="M14.8618 11.5085L12.7685 9.41519C12.0209 8.66759 10.7499 8.96666 10.4509 9.93852C10.2266 10.6114 9.479 10.9852 8.80615 10.8356C7.31094 10.4618 5.29241 8.51807 4.91861 6.9481C4.69433 6.27522 5.14289 5.52762 5.81573 5.30336C6.78762 5.00432 7.08666 3.73339 6.33906 2.98579L4.24576 0.892493C3.64768 0.369169 2.75055 0.369169 2.22723 0.892493L0.806778 2.31294C-0.613672 3.80815 0.956299 7.77046 4.47004 11.2842C7.98379 14.798 11.9461 16.4427 13.4413 14.9475L14.8618 13.527C15.3851 12.9289 15.3851 12.0318 14.8618 11.5085Z" fill="white"/>
</svg>
